<svg xmlns="http://www.w3.org/2000/svg" width="168.848" height="71.91" viewBox="0 0 168.848 71.91">
  <metadata><?xpacket begin="﻿" id="W5M0MpCehiHzreSzNTczkc9d"?>
<x:xmpmeta xmlns:x="adobe:ns:meta/" x:xmptk="Adobe XMP Core 5.6-c138 79.159824, 2016/09/14-01:09:01        ">
   <rdf:RDF xmlns:rdf="http://www.w3.org/1999/02/22-rdf-syntax-ns#">
      <rdf:Description rdf:about=""/>
   </rdf:RDF>
</x:xmpmeta>
                                                                                                    
                                                                                                    
                                                                                                    
                                                                                                    
                                                                                                    
                                                                                                    
                                                                                                    
                                                                                                    
                                                                                                    
                                                                                                    
                                                                                                    
                                                                                                    
                                                                                                    
                                                                                                    
                                                                                                    
                                                                                                    
                                                                                                    
                                                                                                    
                                                                                                    
                                                                                                    
                           
<?xpacket end="w"?></metadata>
<defs>
    <style>
      .cls-1 {
        fill: #ececec;
        fill-rule: evenodd;
      }
    </style>
  </defs>
  <path id="Rounded_Rectangle_6_copy_2" data-name="Rounded Rectangle 6 copy 2" class="cls-1" d="M1044.15,1170.86l-83.279,47.95a1,1,0,0,1-1-1.73l83.28-47.95a1.01,1.01,0,0,1,1.37.37A1,1,0,0,1,1044.15,1170.86Zm-167.858,0,83.155,47.95a1,1,0,0,0,1-1.73l-83.155-47.95a1.006,1.006,0,0,0-1.367.37A0.991,0.991,0,0,0,876.292,1170.86Zm167.858,21.98-83.279,47.95a1,1,0,0,1-1-1.74l83.28-47.94A1,1,0,1,1,1044.15,1192.84Zm-167.858,0,83.155,47.95a1,1,0,0,0,1-1.74l-83.155-47.94A1,1,0,1,0,876.292,1192.84Z" transform="translate(-875.812 -1169)"/>
</svg>
